<?xml version="1.0" standalone="no"?>
<!DOCTYPE svg PUBLIC "-//W3C//DTD SVG 20010904//EN"
 "http://www.w3.org/TR/2001/REC-SVG-20010904/DTD/svg10.dtd">
<svg version="1.0" xmlns="http://www.w3.org/2000/svg"
 width="139.000000pt" height="139.000000pt" viewBox="0 0 139.000000 139.000000"
 preserveAspectRatio="xMidYMid meet">
<metadata>
Created by potrace 1.14, written by Peter Selinger 2001-2017
</metadata>
<g transform="translate(0.000000,139.000000) scale(0.100000,-0.100000)"
fill="#000000" stroke="none">
<path d="M674 1328 c-23 -19 -309 -223 -377 -270 -99 -68 -255 -183 -267 -197
-13 -15 -15 -72 -14 -389 0 -205 4 -375 7 -379 5 -5 727 -8 820 -4 16 1 17 19
17 239 l0 238 -152 101 c-84 55 -158 103 -164 106 -7 4 -11 -42 -11 -151 0
-86 -1 -168 -2 -182 -1 -25 -2 -26 -83 -24 -46 1 -88 2 -93 3 -11 1 -15 266
-5 273 46 36 97 73 150 110 36 24 97 68 137 97 l72 53 145 -102 c80 -55 155
-109 167 -119 22 -17 22 -23 24 -251 1 -141 5 -235 11 -237 6 -2 77 -48 159
-102 83 -55 152 -95 155 -90 3 5 5 53 3 106 -1 54 -2 241 -3 415 l0 317 -197
137 c-109 76 -245 171 -303 211 -58 41 -119 83 -136 94 l-31 19 -29 -22z m102
-61 c34 -23 153 -105 264 -182 111 -77 217 -151 235 -165 18 -14 40 -29 49
-35 13 -9 16 -58 19 -397 1 -214 -1 -388 -5 -388 -5 0 -66 38 -136 84 l-128
84 -1 163 c-1 90 -2 196 -2 234 l-1 70 -170 118 c-93 64 -176 120 -184 123 -8
3 -84 -45 -185 -118 -94 -68 -182 -130 -194 -138 -22 -14 -22 -20 -22 -172 0
-87 2 -158 5 -159 19 -4 240 -3 241 1 0 3 1 81 1 173 l1 168 21 -15 c11 -9 71
-48 133 -88 l112 -73 1 -155 c2 -236 2 -272 -5 -278 -3 -3 -179 -6 -390 -6
-335 -1 -385 1 -386 14 -7 96 -2 706 6 715 8 10 397 291 495 357 14 10 52 37
85 62 33 24 65 45 70 45 6 1 38 -18 71 -42z"/>
<path d="M495 1120 c-116 -82 -219 -157 -230 -165 -11 -9 -57 -41 -102 -73
l-83 -57 3 -335 2 -335 355 0 355 0 1 187 1 187 -96 65 c-53 35 -97 63 -99 61
-2 -1 -3 -71 -3 -154 l0 -151 -160 0 -159 0 0 188 0 187 37 25 c21 14 45 30
53 37 13 11 132 96 291 209 l47 33 98 -68 c213 -145 280 -193 292 -209 7 -10
12 -35 12 -57 -1 -22 -1 -123 -1 -225 l1 -185 77 -50 c42 -27 87 -56 99 -63
l23 -12 -4 342 c-1 189 -4 346 -4 350 -1 6 -585 418 -593 418 -2 0 -98 -67
-213 -150z"/>
</g>
</svg>
